<svg width="50" height="50" viewBox="0 0 50 50" fill="none" xmlns="http://www.w3.org/2000/svg">
<g clip-path="url(#clip0)">
<path d="M49.7743 19.0051C49.1736 17.1638 47.5339 15.974 45.5971 15.974H33.1068L29.1736 4.02934C28.5689 2.19317 26.9326 1.00963 25.0014 1.00963C24.9952 1.00963 24.9889 1.00963 24.9827 1.00973C23.0435 1.01735 21.4079 2.21553 20.8159 4.06225L16.9973 15.974H4.40301C2.46128 15.974 0.820295 17.1678 0.222525 19.0152C-0.375343 20.8626 0.255235 22.7914 1.82904 23.929L12.0192 31.2946L8.09684 43.2061C7.48979 45.0496 8.10983 46.9812 9.67641 48.127C10.4632 48.7025 11.3663 48.9903 12.27 48.9903C13.1655 48.9902 14.0615 48.7074 14.8444 48.1415L25.0521 40.7633L35.1386 48.1291C36.7035 49.2719 38.7301 49.2774 40.3013 48.1435C41.8726 47.0095 42.5056 45.0845 41.9142 43.2391L38.0848 31.2946L48.1883 23.9164C49.7526 22.7742 50.3751 20.8464 49.7743 19.0051Z" fill="white"/>
</g>
<defs>
<clipPath id="clip0">
<rect width="50" height="50" fill="white"/>
</clipPath>
</defs>
</svg>
