<svg width="50" height="48" viewBox="0 0 50 48" fill="none" xmlns="http://www.w3.org/2000/svg">
<path d="M49.7743 18.0051C49.1736 16.1638 47.5339 14.974 45.5971 14.974H33.1068L29.1736 3.02935C28.5689 1.19317 26.9326 0.00964355 25.0014 0.00964355C24.9952 0.00964355 24.9889 0.0096435 24.9827 0.00974114C23.0435 0.0173573 21.4079 1.21553 20.8159 3.06226L16.9973 14.974H4.40301C2.46128 14.974 0.820295 16.1678 0.222525 18.0152C-0.375343 19.8626 0.255235 21.7914 1.82904 22.929L12.0192 30.2946L8.09684 42.2062C7.48979 44.0496 8.10983 45.9812 9.67641 47.127C10.4632 47.7025 11.3663 47.9903 12.27 47.9903C13.1655 47.9902 14.0615 47.7075 14.8444 47.1415L25.0521 39.7633L35.1386 47.1291C36.7035 48.2719 38.7301 48.2774 40.3013 47.1435C41.8726 46.0095 42.5056 44.0845 41.9142 42.2392L38.0848 30.2946L48.1883 22.9164C49.7526 21.7742 50.3751 19.8464 49.7743 18.0051Z" fill="#FFD600"/>
</svg>
